<svg xmlns="http://www.w3.org/2000/svg" viewBox="0 0 256 256">
  <defs>
    <linearGradient id="ocean" x1="0" x2="1" y1="0" y2="1">
      <stop offset="0" stop-color="#22d3ee"/>
      <stop offset="1" stop-color="#1d4ed8"/>
    </linearGradient>
    <linearGradient id="sunset" x1="0" x2="1" y1="0" y2="0">
      <stop offset="0" stop-color="#f59e0b"/>
      <stop offset="1" stop-color="#fb923c"/>
    </linearGradient>
  </defs>

  <circle cx="128" cy="128" r="112" fill="#0b1220"/>
  <circle cx="128" cy="128" r="104" fill="none" stroke="#0ea5b7" stroke-width="12"/>
  <circle cx="128" cy="128" r="84" fill="none" stroke="#0b3b46" stroke-width="10" opacity="0.9"/>

  <circle cx="128" cy="120" r="58" fill="url(#ocean)" opacity="0.85"/>
  <path d="M98 100c12-18 44-26 66-12 10 6 16 16 18 26-18-10-32-10-48-4-13 5-23 2-36-10z" fill="#e6fffb" opacity="0.9"/>
  <path d="M88 132c10 10 26 18 44 18 18 0 36-8 50-20-6 26-29 44-54 44-24 0-44-16-50-42z" fill="#e6fffb" opacity="0.75"/>

  <circle cx="128" cy="120" r="34" fill="#07101a" opacity="0.9"/>
  <path d="M128 78l10 34 34 8-34 10-10 34-10-34-34-10 34-8z" fill="#e2e8f0" opacity="0.95"/>
  <circle cx="128" cy="120" r="10" fill="#0ea5b7"/>
  <circle cx="128" cy="120" r="4" fill="#0b1220"/>

  <path d="M76 156c36-34 72-48 116-58" fill="none" stroke="url(#sunset)" stroke-width="12" stroke-linecap="round"/>
  <path d="M190 88l18 6-10 16-6-10-10-6z" fill="url(#sunset)"/>

  <path d="M56 186h144c10 0 18 8 18 18v12H38v-12c0-10 8-18 18-18z" fill="#0b3b46"/>
  <path d="M70 200h116" stroke="#e2e8f0" stroke-width="10" stroke-linecap="round" opacity="0.95"/>
</svg>

